<svg version="1.0" xmlns="http://www.w3.org/2000/svg" width="32" height="32" viewBox="0 0 284.000000 284.000000" preserveAspectRatio="xMidYMid meet" class="rounded-md me-2 mt-1"><g transform="translate(0.000000,284.000000) scale(0.100000,-0.100000)" fill="#8151FD" stroke="none"><path d="M0 1420 l0 -1420 1420 0 1420 0 0 1420 0 1420 -1420 0 -1420 0 0 -1420z m836 529 c161 -29 287 -142 319 -287 l7 -32 -104 0 -103 0 -20 37 c-35 63 -84 94 -159 100 -111 9 -176 -27 -228 -127 -19 -37 -23 -64 -26 -155 -3 -94 -1 -118 18 -169 40 -105 115 -157 226 -155 108 1 175 53 200 154 l6 24 -104 3 -103 3 -3 78 -4 77 206 0 206 0 0 -82 c0 -98 -22 -197 -55 -253 -33 -58 -106 -122 -173 -153 -53 -25 -67 -27 -187 -27 -125 0 -133 1 -195 31 -169 81 -253 232 -252 455 0 211 86 364 248 441 98 46 175 56 280 37z m684 -485 l0 -474 -105 0 -105 0 0 473 c0 261 2 476 4 478 2 2 50 3 105 1 l101 -3 0 -475z m677 461 c68 -20 128 -66 154 -117 28 -54 31 -158 6 -204 -18 -36 -76 -89 -106 -99 -24 -7 -28 -25 -6 -25 27 0 79 -30 108 -63 46 -51 59 -93 55 -178 -3 -68 -7 -82 -38 -128 -27 -41 -49 -59 -100 -84 l-64 -32 -263 -3 -263 -3 0 475 0 476 233 0 c178 0 245 -4 284 -15z"></path><path d="M1894 1772 c-8 -4 -12 -46 -13 -114 l-2 -108 97 0 c110 0 156 16 179 61 25 48 19 87 -19 125 -33 33 -36 34 -119 34 -47 0 -91 2 -99 5 -7 3 -18 1 -24 -3z"></path><path d="M1887 1393 c-9 -8 -9 -196 -1 -217 9 -24 205 -23 254 2 80 40 81 145 1 199 -30 20 -46 23 -141 23 -59 0 -110 -3 -113 -7z"></path></g></svg>